<svg xmlns="http://www.w3.org/2000/svg" width="20" height="20" viewBox="0 0 20 20" fill="none">
<path d="M10.0001 1.66675C5.40841 1.66675 1.66675 5.40841 1.66675 10.0001C1.66675 14.5917 5.40841 18.3334 10.0001 18.3334C14.5917 18.3334 18.3334 14.5917 18.3334 10.0001C18.3334 5.40841 14.5917 1.66675 10.0001 1.66675ZM13.3334 10.6251H10.6251V13.3334C10.6251 13.6751 10.3417 13.9584 10.0001 13.9584C9.65842 13.9584 9.37508 13.6751 9.37508 13.3334V10.6251H6.66675C6.32508 10.6251 6.04175 10.3417 6.04175 10.0001C6.04175 9.65842 6.32508 9.37508 6.66675 9.37508H9.37508V6.66675C9.37508 6.32508 9.65842 6.04175 10.0001 6.04175C10.3417 6.04175 10.6251 6.32508 10.6251 6.66675V9.37508H13.3334C13.6751 9.37508 13.9584 9.65842 13.9584 10.0001C13.9584 10.3417 13.6751 10.6251 13.3334 10.6251Z" fill="white"/>
</svg>