<svg width="16" height="16" viewBox="0 0 16 16" fill="none" xmlns="http://www.w3.org/2000/svg">
<g id="vuesax/bold/tag-user">
<g id="tag-user">
<path id="Vector" d="M12 1.3335H4C2.89333 1.3335 2 2.22016 2 3.3135V10.5868C2 11.6802 2.89333 12.5735 4 12.5735H4.50667C5.03333 12.5735 5.54667 12.7802 5.92 13.1535L7.06 14.2802C7.58 14.7935 8.42 14.7935 8.94 14.2802L10.08 13.1535C10.4533 12.7802 10.9667 12.5735 11.4933 12.5735H12C13.1067 12.5735 14 11.6802 14 10.5868V3.3135C14 2.22016 13.1067 1.3335 12 1.3335ZM8 3.70016C8.72 3.70016 9.3 4.28683 9.3 5.00016C9.3 5.70683 8.74 6.2735 8.04667 6.30016C8.02 6.30016 7.98 6.30016 7.94667 6.30016C7.24667 6.2735 6.69333 5.70683 6.69333 5.00016C6.7 4.28683 7.28 3.70016 8 3.70016ZM9.83333 9.7935C8.82667 10.4668 7.17333 10.4668 6.16667 9.7935C5.28 9.20683 5.28 8.2335 6.16667 7.64016C7.18 6.96683 8.83333 6.96683 9.83333 7.64016C10.72 8.2335 10.72 9.20016 9.83333 9.7935Z" fill="white"/>
</g>
</g>
</svg>
