<svg width="16" height="13" viewBox="0 0 16 13" fill="none" xmlns="http://www.w3.org/2000/svg">
<g clip-path="url(#clip0_3_2436)">
<g clip-path="url(#clip1_3_2436)">
<path d="M5.8942 0.841947C3.68385 0.208988 1.18112 2.1788 0.304433 5.24173C-0.572251 8.30422 0.509052 11.2999 2.7194 11.9328C4.92976 12.5658 7.43249 10.596 8.30918 7.53303C9.18586 4.47054 8.10455 1.47491 5.8942 0.841947ZM5.52179 3.71891C5.4695 4.35277 4.91294 4.82431 4.27907 4.77156C3.6452 4.71927 3.17366 4.1627 3.22641 3.52884C3.2787 2.89497 3.83527 2.42343 4.46914 2.47618C5.103 2.52847 5.57454 3.08504 5.52179 3.71891Z" fill="white" fill-opacity="0.8"/>
<path d="M13.8768 3.23459C12.1507 2.74077 10.1968 4.27861 9.51255 6.66993C8.82821 9.06126 9.67215 11.4003 11.3982 11.8941C13.1243 12.3884 15.0782 10.8501 15.7625 8.45877C16.4469 6.06744 15.6029 3.72841 13.8768 3.23459ZM13.6226 6.00287C13.5703 6.63674 13.0138 7.10828 12.3799 7.05553C11.746 7.00324 11.2745 6.44667 11.3273 5.8128C11.38 5.17894 11.9361 4.7074 12.57 4.76015C13.2039 4.81244 13.6754 5.36901 13.6226 6.00287Z" fill="white" fill-opacity="0.8"/>
</g>
</g>
<defs>
<clipPath id="clip0_3_2436">
<rect width="16" height="13" fill="white"/>
</clipPath>
<clipPath id="clip1_3_2436">
<rect width="16" height="13" fill="white"/>
</clipPath>
</defs>
</svg>
