<svg width="20" height="15" viewBox="0 0 20 15" fill="none" xmlns="http://www.w3.org/2000/svg">
<g clip-path="url(#clip0_2_104)">
<g clip-path="url(#clip1_2_104)">
<g clip-path="url(#clip2_2_104)">
<path d="M7.36777 0.148192C4.6048 -0.642813 1.47654 1.81952 0.380645 5.64782C-0.715245 9.47612 0.636212 13.2208 3.39918 14.0118C6.16215 14.8028 9.29042 12.3404 10.3863 8.51214C11.4822 4.68384 10.1307 0.939196 7.36777 0.148192ZM6.9023 3.74441C6.8367 4.53683 6.14115 5.12595 5.34873 5.06035C4.55631 4.99475 3.96719 4.29919 4.03279 3.50677C4.09839 2.71435 4.79394 2.12523 5.58636 2.19083C6.37878 2.25644 6.9679 2.95199 6.9023 3.74441Z" fill="#4AFC38"/>
<path d="M17.3459 3.13915C15.1886 2.52159 12.746 4.44412 11.8903 7.43327C11.0347 10.4224 12.0899 13.3463 14.2472 13.9639C16.4045 14.5815 18.8471 12.6589 19.7028 9.66977C20.5585 6.68062 19.5033 3.75671 17.3459 3.13915ZM17.0281 6.59967C16.9625 7.3921 16.2669 7.98122 15.4745 7.91562C14.6821 7.85001 14.093 7.15446 14.1586 6.36204C14.2242 5.56962 14.9197 4.9805 15.7121 5.0461C16.5046 5.1117 17.0937 5.80725 17.0281 6.59967Z" fill="#4AFC38"/>
</g>
</g>
</g>
<defs>
<clipPath id="clip0_2_104">
<rect width="20" height="14.16" fill="white"/>
</clipPath>
<clipPath id="clip1_2_104">
<rect width="20" height="14.16" fill="white"/>
</clipPath>
<clipPath id="clip2_2_104">
<rect width="20" height="14.1593" fill="white" transform="translate(0 0.000366211)"/>
</clipPath>
</defs>
</svg>
