<svg width="20" height="20" viewBox="0 0 20 20" fill="none" xmlns="http://www.w3.org/2000/svg">
<path d="M5.83354 8.33329H8.33354V5.83329L5.41687 2.91663C6.3499 2.47102 7.39812 2.32563 8.4172 2.50048C9.43628 2.67533 10.3761 3.16181 11.1072 3.89294C11.8384 4.62407 12.3248 5.56388 12.4997 6.58296C12.6745 7.60204 12.5291 8.65027 12.0835 9.58329L17.0835 14.5833C17.4151 14.9148 17.6013 15.3645 17.6013 15.8333C17.6013 16.3021 17.4151 16.7518 17.0835 17.0833C16.752 17.4148 16.3024 17.6011 15.8335 17.6011C15.3647 17.6011 14.9151 17.4148 14.5835 17.0833L9.58354 12.0833C8.65051 12.5289 7.60229 12.6743 6.58321 12.4994C5.56412 12.3246 4.62431 11.8381 3.89318 11.107C3.16205 10.3759 2.67557 9.43604 2.50072 8.41696C2.32588 7.39788 2.47127 6.34965 2.91687 5.41663L5.83354 8.33329Z" stroke="white" stroke-width="0.833333" stroke-linecap="round" stroke-linejoin="round"/>
</svg>
