<svg width="20" height="20" viewBox="0 0 20 20" fill="none" xmlns="http://www.w3.org/2000/svg">
<path d="M6.6665 9.99996C6.6665 10.221 6.7543 10.4329 6.91058 10.5892C7.06686 10.7455 7.27882 10.8333 7.49984 10.8333C7.72085 10.8333 7.93281 10.7455 8.08909 10.5892C8.24537 10.4329 8.33317 10.221 8.33317 9.99996C8.33317 9.77895 8.24537 9.56698 8.08909 9.4107C7.93281 9.25442 7.72085 9.16663 7.49984 9.16663C7.27882 9.16663 7.06686 9.25442 6.91058 9.4107C6.7543 9.56698 6.6665 9.77895 6.6665 9.99996Z" stroke="white" stroke-width="0.833333"/>
<path d="M11.6665 9.99996C11.6665 10.221 11.7543 10.4329 11.9106 10.5892C12.0669 10.7455 12.2788 10.8333 12.4998 10.8333C12.7209 10.8333 12.9328 10.7455 13.0891 10.5892C13.2454 10.4329 13.3332 10.221 13.3332 9.99996C13.3332 9.77895 13.2454 9.56698 13.0891 9.4107C12.9328 9.25442 12.7209 9.16663 12.4998 9.16663C12.2788 9.16663 12.0669 9.25442 11.9106 9.4107C11.7543 9.56698 11.6665 9.77895 11.6665 9.99996Z" stroke="white" stroke-width="0.833333"/>
<path d="M12.9165 14.1667C12.9165 15 14.1665 16.6667 14.5832 16.6667C15.8332 16.6667 16.944 15.2775 17.4999 14.1667C18.0557 12.7775 17.9165 9.30587 16.2499 4.58337C15.0357 3.73754 13.7499 3.46671 12.4999 3.33337L11.6899 4.93587C10.5723 4.74295 9.42995 4.74295 8.31238 4.93587L7.49988 3.33337C6.24988 3.46671 4.96404 3.73754 3.74988 4.58337C2.08321 9.30587 1.94404 12.7775 2.49988 14.1667C3.05571 15.2775 4.16654 16.6667 5.41654 16.6667C5.83321 16.6667 7.08321 15 7.08321 14.1667" stroke="white" stroke-width="0.833333"/>
<path d="M5.8335 13.75C8.75016 14.5833 11.2502 14.5833 14.1668 13.75" stroke="white" stroke-width="0.833333"/>
</svg>
